<svg width="38" height="38" viewBox="0 0 38 38" fill="none" xmlns="http://www.w3.org/2000/svg">
<path d="M19 3.8C14.9687 3.8 11.1025 5.40142 8.25198 8.25198C5.40142 11.1025 3.8 14.9687 3.8 19C3.8 23.0313 5.40142 26.8975 8.25198 29.748C11.1025 32.5986 14.9687 34.2 19 34.2C23.0313 34.2 26.8975 32.5986 29.748 29.748C32.5986 26.8975 34.2 23.0313 34.2 19C34.2 14.9687 32.5986 11.1025 29.748 8.25198C26.8975 5.40142 23.0313 3.8 19 3.8ZM0 19C0 8.5063 8.5063 0 19 0C29.4937 0 38 8.5063 38 19C38 29.4937 29.4937 38 19 38C8.5063 38 0 29.4937 0 19Z" fill="#8B8B8B"/>
<path d="M19 22.8C18.4961 22.8 18.0128 22.5998 17.6565 22.2435C17.3002 21.8872 17.1 21.4039 17.1 20.9V19C17.1 18.4961 17.3002 18.0128 17.6565 17.6565C18.0128 17.3002 18.4961 17.1 19 17.1C19.5039 17.1 19.9872 17.3002 20.3435 17.6565C20.6998 18.0128 20.9 18.4961 20.9 19V20.9C20.9 21.4039 20.6998 21.8872 20.3435 22.2435C19.9872 22.5998 19.5039 22.8 19 22.8ZM16.15 27.55C16.15 26.7941 16.4503 26.0692 16.9848 25.5348C17.5192 25.0003 18.2442 24.7 19 24.7C19.7559 24.7 20.4808 25.0003 21.0153 25.5348C21.5498 26.0692 21.85 26.7941 21.85 27.55C21.85 28.3059 21.5498 29.0308 21.0153 29.5653C20.4808 30.0997 19.7559 30.4 19 30.4C18.2442 30.4 17.5192 30.0997 16.9848 29.5653C16.4503 29.0308 16.15 28.3059 16.15 27.55Z" fill="#8B8B8B"/>
<path d="M19.741 11.0409C17.9227 10.9554 16.397 11.9719 16.1234 13.6116C16.0277 14.0963 15.747 14.5246 15.3408 14.8057C14.9347 15.0869 14.4349 15.1988 13.9476 15.1178C13.4603 15.0367 13.0238 14.7691 12.7305 14.3716C12.4372 13.9741 12.3103 13.4779 12.3766 12.9884C13.053 8.93002 16.7523 7.09462 19.9215 7.24662C21.5441 7.32262 23.2142 7.90592 24.4986 9.10672C25.8153 10.336 26.6 12.0992 26.6 14.25C26.6 16.7029 25.6348 18.5231 23.9723 19.6308C22.4466 20.6473 20.5751 20.9 19 20.9C18.4961 20.9 18.0128 20.6998 17.6565 20.3435C17.3002 19.9872 17.1 19.5039 17.1 19C17.1 18.4961 17.3002 18.0128 17.6565 17.6565C18.0128 17.3002 18.4961 17.1 19 17.1C20.273 17.1 21.2534 16.8777 21.8652 16.4692C22.3402 16.1519 22.8 15.5952 22.8 14.25C22.8 13.0758 22.3972 12.3443 21.9032 11.8826C21.3769 11.3905 20.6112 11.0846 19.741 11.0409Z" fill="#8B8B8B"/>
</svg>
