<svg width="35" height="24" viewBox="0 0 35 24" fill="none" xmlns="http://www.w3.org/2000/svg">
<path d="M0 2C0 1.46957 0.224244 0.96086 0.6234 0.585787C1.02256 0.210714 1.56393 0 2.12842 0H31.9263C32.4908 0 33.0321 0.210714 33.4313 0.585787C33.8304 0.96086 34.0547 1.46957 34.0547 2C34.0547 2.53043 33.8304 3.03914 33.4313 3.41421C33.0321 3.78929 32.4908 4 31.9263 4H2.12842C1.56393 4 1.02256 3.78929 0.6234 3.41421C0.224244 3.03914 0 2.53043 0 2ZM0 12C0 11.4696 0.224244 10.9609 0.6234 10.5858C1.02256 10.2107 1.56393 10 2.12842 10H31.9263C32.4908 10 33.0321 10.2107 33.4313 10.5858C33.8304 10.9609 34.0547 11.4696 34.0547 12C34.0547 12.5304 33.8304 13.0391 33.4313 13.4142C33.0321 13.7893 32.4908 14 31.9263 14H2.12842C1.56393 14 1.02256 13.7893 0.6234 13.4142C0.224244 13.0391 0 12.5304 0 12ZM0 22C0 21.4696 0.224244 20.9609 0.6234 20.5858C1.02256 20.2107 1.56393 20 2.12842 20H31.9263C32.4908 20 33.0321 20.2107 33.4313 20.5858C33.8304 20.9609 34.0547 21.4696 34.0547 22C34.0547 22.5304 33.8304 23.0391 33.4313 23.4142C33.0321 23.7893 32.4908 24 31.9263 24H2.12842C1.56393 24 1.02256 23.7893 0.6234 23.4142C0.224244 23.0391 0 22.5304 0 22Z" fill="#8B8B8B"/>
</svg>
